<svg width="16" height="16" viewBox="0 0 16 16" fill="none" xmlns="http://www.w3.org/2000/svg">
<g id="bell-dot">
<path id="Vector" d="M12.9333 9.93325C13.4667 10.9333 14 11.3333 14 11.3333H2C2 11.3333 4 9.99992 4 5.33325C4 3.13325 5.8 1.33325 8 1.33325C8.46667 1.33325 8.86667 1.39992 9.26667 1.53325" stroke="white" stroke-linecap="round" stroke-linejoin="round"/>
<path id="Vector_2" d="M6.8667 14C6.97829 14.203 7.14233 14.3722 7.34169 14.4901C7.54106 14.608 7.76842 14.6702 8.00003 14.6702C8.23165 14.6702 8.45901 14.608 8.65837 14.4901C8.85773 14.3722 9.02178 14.203 9.13337 14" stroke="white" stroke-linecap="round" stroke-linejoin="round"/>
<path id="Vector_3" d="M12 7.33325C13.1046 7.33325 14 6.43782 14 5.33325C14 4.22868 13.1046 3.33325 12 3.33325C10.8954 3.33325 10 4.22868 10 5.33325C10 6.43782 10.8954 7.33325 12 7.33325Z" fill="#FE2E2E" stroke="#FE2E2E" stroke-linecap="round" stroke-linejoin="round"/>
</g>
</svg>
