<svg width="15" height="16" viewBox="0 0 15 16" fill="none" xmlns="http://www.w3.org/2000/svg">
<g id="bi:google" clip-path="url(#clip0_3_632)">
<path id="Vector" d="M14.5734 6.64813C14.6609 7.15153 14.7045 7.66157 14.7038 8.17251C14.7038 10.4544 13.8881 12.3838 12.4688 13.6897H12.4706C11.2294 14.8363 9.52313 15.5 7.5 15.5C5.51088 15.5 3.60322 14.7098 2.1967 13.3033C0.790176 11.8968 0 9.98913 0 8.00001C0 6.01088 0.790176 4.10323 2.1967 2.69671C3.60322 1.29018 5.51088 0.500007 7.5 0.500007C9.36182 0.478202 11.1599 1.17766 12.5175 2.45188L10.3763 4.59313C9.60223 3.8553 8.56922 3.45125 7.5 3.46813C5.54344 3.46813 3.88125 4.78813 3.28875 6.56563C2.9746 7.49704 2.9746 8.50578 3.28875 9.43719H3.29156C3.88688 11.2119 5.54625 12.5319 7.50281 12.5319C8.51344 12.5319 9.38156 12.2731 10.0547 11.8156H10.0519C10.4427 11.5567 10.7771 11.2213 11.0347 10.8296C11.2924 10.4379 11.468 9.99801 11.5509 9.53657H7.5V6.64907L14.5734 6.64813Z" fill="black" fill-opacity="0.3"/>
</g>
<defs>
<clipPath id="clip0_3_632">
<rect width="15" height="15" fill="white" transform="translate(0 0.5)"/>
</clipPath>
</defs>
</svg>
