<svg width="17" height="18" viewBox="0 0 17 18" fill="none" xmlns="http://www.w3.org/2000/svg">
<g id="cib:ubisoft" clip-path="url(#clip0_3_636)">
<path id="Vector" d="M16.6898 8.99156C16.5049 0.283844 4.92527 -2.96422 0.464897 5.19844C0.664647 5.34506 0.932397 5.53578 1.13215 5.67444C0.803003 6.36415 0.57009 7.09578 0.439928 7.84884C0.35402 8.33288 0.310646 8.8235 0.310303 9.31509C0.310303 13.8307 3.98177 17.5001 8.50271 17.5001C13.0268 17.5001 16.6898 13.8366 16.6898 9.31509V8.99156ZM2.32958 10.4498C2.22174 11.3354 2.2908 11.6096 2.2908 11.7169L2.09158 11.7865C2.01721 11.642 1.8318 11.1277 1.74574 10.4355C1.52952 7.80209 3.32833 5.43059 6.07012 4.98222C8.57974 4.61459 10.9847 6.17488 11.5436 8.35513L11.3444 8.42472C11.2833 8.36363 11.1834 8.18672 10.7988 7.80209C7.7664 4.76919 3.00427 6.15788 2.32905 10.4525L2.32958 10.4498ZM10.1241 11.9246C9.919 12.2213 9.64487 12.4637 9.32532 12.6309C9.00576 12.7981 8.65035 12.8852 8.28968 12.8846C7.99589 12.8853 7.70485 12.828 7.43328 12.716C7.16171 12.6039 6.91496 12.4393 6.70722 12.2315C6.49948 12.0238 6.33485 11.777 6.22278 11.5055C6.1107 11.2339 6.05341 10.9428 6.05418 10.6491C6.05623 10.0855 6.27075 9.54348 6.65491 9.13116C7.03906 8.71884 7.56459 8.46657 8.12659 8.42472C8.84855 8.39444 9.52324 8.78384 9.83934 9.41497C10.0083 9.75315 10.0682 10.1355 10.0108 10.5091C9.9533 10.8828 9.78129 11.2294 9.51846 11.5012C9.72512 11.6478 9.92487 11.7865 10.1241 11.9246ZM14.7837 12.0107C13.6022 14.6887 11.1675 16.0949 8.5723 16.0561C3.58865 15.8096 2.1394 10.0599 5.47033 7.9875L5.61696 8.13147C5.56171 8.20956 5.36196 8.36469 5.05543 8.97031C4.69577 9.70609 4.57943 10.4451 4.62618 10.9046C4.88596 14.9214 10.5172 15.7438 12.451 11.7647C14.9165 6.32256 8.37255 0.785344 2.56758 5.01622L2.43743 4.88606C3.9653 2.49066 6.95305 1.42231 9.80055 2.13631C14.1552 3.23441 16.4964 7.77181 14.7837 12.0107Z" fill="black" fill-opacity="0.3"/>
</g>
<defs>
<clipPath id="clip0_3_636">
<rect width="17" height="17" fill="white" transform="translate(0 0.5)"/>
</clipPath>
</defs>
</svg>
