<svg width="17" height="18" viewBox="0 0 17 18" fill="none" xmlns="http://www.w3.org/2000/svg">
<g id="fluent:money-16-filled">
<path id="Vector" d="M1.0625 5.01562C1.0625 4.2825 1.6575 3.6875 2.39062 3.6875H12.4844C13.2175 3.6875 13.8125 4.2825 13.8125 5.01562V10.8594C13.8125 11.5925 13.2175 12.1875 12.4844 12.1875H2.39062C1.6575 12.1875 1.0625 11.5925 1.0625 10.8594V5.01562ZM4.25 5.28125V4.75H3.1875V5.28125C3.1875 5.42215 3.13153 5.55727 3.0319 5.6569C2.93227 5.75653 2.79715 5.8125 2.65625 5.8125H2.125V6.875H2.65625C3.07894 6.875 3.48432 6.70709 3.7832 6.4082C4.08209 6.10932 4.25 5.70394 4.25 5.28125ZM9.5625 7.9375C9.5625 7.37391 9.33862 6.83341 8.9401 6.4349C8.54159 6.03638 8.00109 5.8125 7.4375 5.8125C6.87391 5.8125 6.33341 6.03638 5.9349 6.4349C5.53638 6.83341 5.3125 7.37391 5.3125 7.9375C5.3125 8.50109 5.53638 9.04159 5.9349 9.4401C6.33341 9.83862 6.87391 10.0625 7.4375 10.0625C8.00109 10.0625 8.54159 9.83862 8.9401 9.4401C9.33862 9.04159 9.5625 8.50109 9.5625 7.9375ZM11.6875 4.75H10.625V5.28125C10.625 5.70394 10.7929 6.10932 11.0918 6.4082C11.3907 6.70709 11.7961 6.875 12.2188 6.875H12.75V5.8125H12.2188C12.0779 5.8125 11.9427 5.75653 11.8431 5.6569C11.7435 5.55727 11.6875 5.42215 11.6875 5.28125V4.75ZM4.25 10.5938C4.25 10.1711 4.08209 9.76568 3.7832 9.4668C3.48432 9.16791 3.07894 9 2.65625 9H2.125V10.0625H2.65625C2.79715 10.0625 2.93227 10.1185 3.0319 10.2181C3.13153 10.3177 3.1875 10.4529 3.1875 10.5938V11.125H4.25V10.5938ZM11.6875 11.125V10.5938C11.6875 10.4529 11.7435 10.3177 11.8431 10.2181C11.9427 10.1185 12.0779 10.0625 12.2188 10.0625H12.75V9H12.2188C11.7961 9 11.3907 9.16791 11.0918 9.4668C10.7929 9.76568 10.625 10.1711 10.625 10.5938V11.125H11.6875ZM4.78125 14.3125C4.44467 14.3126 4.11669 14.2062 3.84432 14.0085C3.57195 13.8107 3.36918 13.5318 3.26506 13.2118C3.41275 13.2372 3.56363 13.25 3.71875 13.25H12.4844C13.1184 13.25 13.7265 12.9981 14.1748 12.5498C14.6231 12.1015 14.875 11.4934 14.875 10.8594V5.90281C15.1859 6.01272 15.455 6.21634 15.6453 6.4856C15.8356 6.75487 15.9377 7.07653 15.9375 7.40625V10.8594C15.9375 11.3128 15.8482 11.7619 15.6746 12.1808C15.5011 12.5998 15.2468 12.9805 14.9261 13.3011C14.6055 13.6218 14.2248 13.8761 13.8058 14.0496C13.3869 14.2232 12.9378 14.3125 12.4844 14.3125H4.78125Z" fill="white"/>
</g>
</svg>
