<svg width="17" height="18" viewBox="0 0 17 18" fill="none" xmlns="http://www.w3.org/2000/svg">
<g id="ic:baseline-apple">
<path id="Vector" d="M12.077 14.865C11.3828 15.5379 10.6249 15.4317 9.89533 15.1129C9.12325 14.7871 8.41491 14.7729 7.60033 15.1129C6.58033 15.5521 6.042 15.4246 5.43283 14.865C1.97616 11.3021 2.48616 5.87625 6.41033 5.67792C7.36658 5.7275 8.03241 6.20208 8.592 6.24458C9.42783 6.07458 10.2282 5.58583 11.1207 5.64958C12.1903 5.73458 12.9978 6.15958 13.5291 6.92458C11.3191 8.24917 11.8432 11.1604 13.8691 11.975C13.4653 13.0375 12.9412 14.0929 12.0699 14.8721L12.077 14.865ZM8.52116 5.63542C8.41491 4.05583 9.697 2.7525 11.1703 2.625C11.3757 4.4525 9.51283 5.8125 8.52116 5.63542Z" fill="black" fill-opacity="0.3"/>
</g>
</svg>
