<svg width="17" height="18" viewBox="0 0 17 18" fill="none" xmlns="http://www.w3.org/2000/svg">
<g id="mingcute:meta-fill" clip-path="url(#clip0_3_646)">
<g id="Group">
<path id="Vector" fill-rule="evenodd" clip-rule="evenodd" d="M11.3496 3.68955C12.6459 3.6003 13.6474 4.3568 14.314 5.22946C14.9855 6.10992 15.448 7.25955 15.7023 8.39005C15.9552 9.52055 16.0232 10.7353 15.8128 11.7709C15.6109 12.7654 15.0719 13.903 13.8529 14.2678C12.7054 14.6106 11.6995 14.112 10.9827 13.5085C10.263 12.9028 9.65386 12.0543 9.17502 11.2588C8.95104 10.885 8.74076 10.5032 8.54461 10.1141C8.34864 10.503 8.1386 10.8845 7.9149 11.2581C7.43607 12.0543 6.8269 12.9028 6.10723 13.5085C5.38969 14.112 4.38457 14.6106 3.23707 14.2678C2.01803 13.903 1.47898 12.7661 1.27711 11.7709C1.06744 10.7353 1.13544 9.52055 1.38832 8.39005C1.6419 7.25955 2.10444 6.10921 2.77665 5.22946C3.44248 4.3568 4.44407 3.6003 5.74032 3.68955C6.95582 3.77455 7.83911 4.59834 8.38948 5.29676L8.54532 5.50146L8.70044 5.29605C9.25082 4.59834 10.1341 3.77384 11.3496 3.68955ZM5.59298 5.80959C5.29548 5.78905 4.9059 5.94134 4.46532 6.51934C4.0304 7.08955 3.66915 7.93105 3.46161 8.85542C3.25478 9.7798 3.22432 10.6822 3.35961 11.3488C3.47648 11.9225 3.66419 12.1286 3.77894 12.2009L3.82711 12.225L3.84623 12.232C4.01057 12.2816 4.28115 12.2675 4.73873 11.8821C5.19561 11.4982 5.66169 10.8813 6.09448 10.163C6.28715 9.84213 6.46636 9.51346 6.62715 9.19755L6.81132 8.82567L6.97636 8.47363L7.12227 8.14921L7.24623 7.86092L7.34753 7.61584C7.21047 7.34056 7.05351 7.07565 6.8779 6.82321C6.42173 6.17438 5.96415 5.8358 5.59298 5.8103V5.80959ZM11.4969 5.80959C11.1258 5.8358 10.6682 6.17438 10.212 6.82321C10.0364 7.07564 9.87944 7.34055 9.7424 7.61584L9.90319 8.00046L10.0378 8.30788L10.1136 8.47363L10.2793 8.82567L10.4635 9.19755C10.6243 9.51346 10.8028 9.84213 10.9954 10.163C11.4282 10.8813 11.895 11.4982 12.3505 11.8821C12.7762 12.2405 13.0397 12.2774 13.2076 12.2413L13.2444 12.232C13.3365 12.2037 13.5865 12.0557 13.7303 11.348C13.8649 10.6822 13.8359 9.7798 13.6283 8.85471C13.4215 7.93105 13.0602 7.08955 12.6246 6.51934C12.1833 5.94134 11.7944 5.78976 11.4969 5.80959Z" fill="black" fill-opacity="0.3"/>
</g>
</g>
<defs>
<clipPath id="clip0_3_646">
<rect width="17" height="17" fill="white" transform="translate(0 0.5)"/>
</clipPath>
</defs>
</svg>
